<svg width="66" height="160" viewBox="0 0 66 160" fill="none" xmlns="http://www.w3.org/2000/svg">
<path fill-rule="evenodd" clip-rule="evenodd" d="M11.4157 149.761C8.93248 154.114 11.8498 160 16.861 160H48.0519C51.3656 160 54.0519 157.314 54.0519 154V6C54.0519 2.68629 51.3656 0 48.0519 0H6.08466C1.96733 0 -0.923819 4.05973 0.385153 7.96344C23.1381 75.8191 29.8311 117.481 11.4157 149.761Z" fill="#A4B4FB" fill-opacity="0.76"/>
<path fill-rule="evenodd" clip-rule="evenodd" d="M30.2114 150.383C28.1587 154.673 31.0951 160 35.8508 160H59.5185C62.8322 160 65.5185 157.314 65.5185 154V6C65.5185 2.68629 62.8322 0 59.5185 0H27.1524C23.1754 0 20.3004 3.80176 21.3572 7.63576C40.2348 76.122 45.7233 117.965 30.2114 150.383Z" fill="#6C87FF"/>
</svg>
